<svg width="22" height="24" viewBox="0 0 22 24" fill="none" xmlns="http://www.w3.org/2000/svg">
<path d="M15.7029 8.64172C17.2486 9.74613 19.1423 10.396 21.1875 10.396V6.46244C20.8004 6.46259 20.4144 6.4222 20.0357 6.34194V9.43819C17.9907 9.43819 16.0972 8.78845 14.5511 7.68412V15.7114C14.5511 19.7271 11.2941 22.9821 7.27664 22.9821C5.77763 22.9821 4.38431 22.5292 3.22693 21.7523C4.54792 23.1024 6.39013 23.9398 8.42814 23.9398C12.4459 23.9398 15.703 20.6848 15.703 16.6689V8.64172H15.7029ZM17.1238 4.67328C16.3338 3.81068 15.8151 2.69593 15.7029 1.46348V0.957581H14.6114C14.8861 2.52395 15.8234 3.86216 17.1238 4.67328ZM5.76795 18.6709C5.32655 18.0926 5.08796 17.3849 5.08908 16.6574C5.08908 14.8208 6.57882 13.3316 8.4168 13.3316C8.75928 13.3315 9.09974 13.384 9.42621 13.4875V9.46599C9.04469 9.41377 8.6597 9.39151 8.27487 9.3997V12.5298C7.94824 12.4263 7.60761 12.3738 7.26497 12.3741C5.42707 12.3741 3.93741 13.863 3.93741 15.6999C3.93741 16.9987 4.68199 18.1231 5.76795 18.6709Z" fill="#FF004F"/>
<path d="M14.5511 7.68404C16.0973 8.78837 17.9906 9.4381 20.0357 9.4381V6.34186C18.8942 6.09879 17.8836 5.5026 17.1238 4.67328C15.8232 3.86208 14.8862 2.52387 14.6114 0.957581H11.7444V16.6687C11.7379 18.5003 10.2507 19.9834 8.41667 19.9834C7.336 19.9834 6.37584 19.4685 5.76781 18.6708C4.68202 18.1231 3.93736 16.9986 3.93736 15.7C3.93736 13.8633 5.42701 12.3741 7.26491 12.3741C7.61705 12.3741 7.95644 12.4289 8.27482 12.5299V9.39979C4.32789 9.48131 1.15369 12.7046 1.15369 16.6688C1.15369 18.6477 1.94411 20.4417 3.22704 21.7525C4.38442 22.5292 5.77766 22.9823 7.27675 22.9823C11.2943 22.9823 14.5512 19.727 14.5512 15.7114L14.5511 7.68404Z" fill="black"/>
<path d="M20.0357 6.34179V5.50477C19.0063 5.50627 17.9972 5.21813 17.1238 4.6733C17.8969 5.51927 18.915 6.10265 20.0357 6.34196M14.6113 0.957517C14.5852 0.807854 14.5651 0.657193 14.5511 0.505903V0H10.5924V15.7113C10.5861 17.5428 9.09895 19.0258 7.26485 19.0258C6.7449 19.0266 6.23205 18.905 5.76775 18.671C6.37577 19.4686 7.33594 19.9833 8.4166 19.9833C10.2505 19.9833 11.7379 18.5004 11.7443 16.6688V0.9576L14.6113 0.957517ZM8.275 9.39972V8.5085C7.9442 8.46333 7.61072 8.44072 7.27685 8.4408C3.25892 8.4408 0.00195312 11.696 0.00195312 15.7113C0.00195312 18.2287 1.28198 20.4473 3.22714 21.7524C1.94422 20.4416 1.15379 18.6476 1.15379 16.6687C1.15379 12.7046 4.32791 9.48124 8.275 9.39972Z" fill="#00F2EA"/>
</svg>
