<svg width="50" height="50" viewBox="0 0 50 50" fill="none" xmlns="http://www.w3.org/2000/svg">
<path d="M25 45.8337C13.4937 45.8337 4.16663 36.5066 4.16663 25.0003C4.16663 13.4941 13.4937 4.16699 25 4.16699C36.5062 4.16699 45.8333 13.4941 45.8333 25.0003C45.8333 36.5066 36.5062 45.8337 25 45.8337ZM25 41.667C29.4202 41.667 33.6595 39.911 36.7851 36.7854C39.9107 33.6598 41.6666 29.4206 41.6666 25.0003C41.6666 20.58 39.9107 16.3408 36.7851 13.2152C33.6595 10.0896 29.4202 8.33366 25 8.33366C20.5797 8.33366 16.3405 10.0896 13.2148 13.2152C10.0892 16.3408 8.33329 20.58 8.33329 25.0003C8.33329 29.4206 10.0892 33.6598 13.2148 36.7854C16.3405 39.911 20.5797 41.667 25 41.667ZM27.0833 25.0003H35.4166V29.167H22.9166V14.5837H27.0833V25.0003Z" fill="#FFC0CB"/>
</svg>
