<svg width="50" height="50" viewBox="0 0 50 50" fill="none" xmlns="http://www.w3.org/2000/svg">
<path d="M18.75 22.917C18.75 24.5746 19.4085 26.1643 20.5806 27.3364C21.7527 28.5085 23.3424 29.167 25 29.167C26.6576 29.167 28.2473 28.5085 29.4194 27.3364C30.5915 26.1643 31.25 24.5746 31.25 22.917C31.25 21.2594 30.5915 19.6697 29.4194 18.4976C28.2473 17.3255 26.6576 16.667 25 16.667C23.3424 16.667 21.7527 17.3255 20.5806 18.4976C19.4085 19.6697 18.75 21.2594 18.75 22.917Z" stroke="#FFC0CB" stroke-width="4.16667" stroke-linecap="round" stroke-linejoin="round"/>
<path d="M36.7855 34.7024L27.9459 43.542C27.1646 44.3225 26.1054 44.7609 25.0011 44.7609C23.8967 44.7609 22.8376 44.3225 22.0563 43.542L13.2146 34.7024C10.8838 32.3715 9.29658 29.4018 8.65356 26.1688C8.01055 22.9358 8.34065 19.5848 9.60214 16.5394C10.8636 13.494 12.9998 10.8911 15.7406 9.05976C18.4814 7.22844 21.7037 6.25098 25 6.25098C28.2964 6.25098 31.5187 7.22844 34.2595 9.05976C37.0003 10.8911 39.1365 13.494 40.398 16.5394C41.6594 19.5848 41.9895 22.9358 41.3465 26.1688C40.7035 29.4018 39.1163 32.3715 36.7855 34.7024Z" stroke="#FFC0CB" stroke-width="4.16667" stroke-linecap="round" stroke-linejoin="round"/>
</svg>
